<svg width="500" height="270" viewBox="0 0 500 270" fill="none" xmlns="http://www.w3.org/2000/svg">
<rect width="500" height="270" rx="2" fill="url(#paint0_linear_601_703)"/>
<path d="M398.444 54.69L393 50L387.556 54.69C384.625 56.8675 326 107.955 326 153.18C326 170.95 333.059 187.991 345.624 200.556C358.189 213.121 375.23 220.18 393 220.18C410.77 220.18 427.811 213.121 440.376 200.556C452.941 187.991 460 170.95 460 153.18C460 107.955 401.375 56.8675 398.444 54.69ZM411.676 190.616L404.223 175.625C408.394 173.542 411.904 170.34 414.36 166.376C416.815 162.412 418.119 157.843 418.125 153.18H434.875C434.867 160.959 432.692 168.582 428.595 175.194C424.497 181.807 418.639 187.147 411.676 190.616V190.616Z" fill="#FFDE00"/>
<defs>
<linearGradient id="paint0_linear_601_703" x1="3.72529e-06" y1="135" x2="500" y2="135" gradientUnits="userSpaceOnUse">
<stop stop-color="#FEC802"/>
<stop offset="0.557292" stop-color="#FF9A24"/>
</linearGradient>
</defs>
</svg>
